<svg width="28" height="28" viewBox="0 0 28 28" fill="none" xmlns="http://www.w3.org/2000/svg">
<path d="M22.75 3.49998H21.875V2.64959C21.875 2.17873 21.513 1.77459 21.0421 1.75107C20.9238 1.74537 20.8056 1.76375 20.6946 1.8051C20.5836 1.84644 20.4821 1.90989 20.3964 1.9916C20.3106 2.07331 20.2424 2.17158 20.1957 2.28045C20.1491 2.38933 20.125 2.50654 20.125 2.62498V3.49998H7.875V2.64959C7.875 2.17873 7.51297 1.77459 7.04211 1.75107C6.9238 1.74537 6.80557 1.76375 6.69457 1.8051C6.58358 1.84644 6.48213 1.90989 6.39638 1.9916C6.31063 2.07331 6.24237 2.17158 6.19572 2.28045C6.14907 2.38933 6.12501 2.50654 6.125 2.62498V3.49998H5.25C4.32174 3.49998 3.4315 3.86873 2.77513 4.52511C2.11875 5.18149 1.75 6.07173 1.75 6.99998V7.65623C1.75 7.71425 1.77305 7.76989 1.81407 7.81091C1.85509 7.85194 1.91073 7.87498 1.96875 7.87498H26.0312C26.0893 7.87498 26.1449 7.85194 26.1859 7.81091C26.227 7.76989 26.25 7.71425 26.25 7.65623V6.99998C26.25 6.07173 25.8813 5.18149 25.2249 4.52511C24.5685 3.86873 23.6783 3.49998 22.75 3.49998Z" fill="#060D00"/>
<path d="M26.0312 9.625H1.96875C1.91073 9.625 1.85509 9.64805 1.81407 9.68907C1.77305 9.73009 1.75 9.78573 1.75 9.84375V22.75C1.75 23.6783 2.11875 24.5685 2.77513 25.2249C3.4315 25.8812 4.32174 26.25 5.25 26.25H22.75C23.6783 26.25 24.5685 25.8812 25.2249 25.2249C25.8812 24.5685 26.25 23.6783 26.25 22.75V9.84375C26.25 9.78573 26.227 9.73009 26.1859 9.68907C26.1449 9.64805 26.0893 9.625 26.0312 9.625Z" fill="#060D00"/>
</svg>
