<svg width="24" height="24" viewBox="0 0 24 24" fill="none" xmlns="http://www.w3.org/2000/svg">
<path d="M21 15C21 16.1 20.6083 17.0417 19.825 17.825C19.0417 18.6083 18.1 19 17 19H8.825C8.60833 19.5833 8.24567 20.0627 7.737 20.438C7.229 20.8127 6.65 21 6 21C5.16667 21 4.45833 20.7083 3.875 20.125C3.29167 19.5417 3 18.8333 3 18C3 17.1667 3.29167 16.4583 3.875 15.875C4.45833 15.2917 5.16667 15 6 15C6.65 15 7.229 15.1873 7.737 15.562C8.24567 15.9373 8.60833 16.4167 8.825 17H17C17.55 17 18.021 16.804 18.413 16.412C18.8043 16.0207 19 15.55 19 15C19 14.45 18.8043 13.979 18.413 13.587C18.021 13.1957 17.55 13 17 13H7C5.9 13 4.95833 12.6083 4.175 11.825C3.39167 11.0417 3 10.1 3 9C3 7.9 3.39167 6.95833 4.175 6.175C4.95833 5.39167 5.9 5 7 5H15.175C15.3917 4.41667 15.754 3.93733 16.262 3.562C16.7707 3.18733 17.35 3 18 3C18.8333 3 19.5417 3.29167 20.125 3.875C20.7083 4.45833 21 5.16667 21 6C21 6.83333 20.7083 7.54167 20.125 8.125C19.5417 8.70833 18.8333 9 18 9C17.35 9 16.7667 8.81267 16.25 8.438C15.7333 8.06267 15.375 7.58333 15.175 7H7C6.45 7 5.97933 7.19567 5.588 7.587C5.196 7.979 5 8.45 5 9C5 9.55 5.196 10.0207 5.588 10.412C5.97933 10.804 6.45 11 7 11H17C18.1 11 19.0417 11.3917 19.825 12.175C20.6083 12.9583 21 13.9 21 15ZM7 18C7 17.7167 6.90433 17.479 6.713 17.287C6.521 17.0957 6.28333 17 6 17C5.71667 17 5.479 17.0957 5.287 17.287C5.09567 17.479 5 17.7167 5 18C5 18.2833 5.09567 18.521 5.287 18.713C5.479 18.9043 5.71667 19 6 19C6.28333 19 6.521 18.9043 6.713 18.713C6.90433 18.521 7 18.2833 7 18ZM19 6C19 5.71667 18.904 5.47933 18.712 5.288C18.5207 5.096 18.2833 5 18 5C17.7167 5 17.4793 5.096 17.288 5.288C17.096 5.47933 17 5.71667 17 6C17 6.28333 17.096 6.52067 17.288 6.712C17.4793 6.904 17.7167 7 18 7C18.2833 7 18.5207 6.904 18.712 6.712C18.904 6.52067 19 6.28333 19 6Z" fill="black"/>
</svg>
