<svg width="16" height="14" viewBox="0 0 16 14" fill="none" xmlns="http://www.w3.org/2000/svg">
<path d="M15.9725 13.3636C15.9725 13.5324 15.9078 13.6943 15.7926 13.8136C15.6774 13.933 15.5211 14 15.3582 14H0.614327C0.451397 14 0.295141 13.933 0.179932 13.8136C0.0647235 13.6943 0 13.5324 0 13.3636V0.636364C0 0.467589 0.0647235 0.305728 0.179932 0.186387C0.295141 0.0670454 0.451397 0 0.614327 0C0.777257 0 0.933513 0.0670454 1.04872 0.186387C1.16393 0.305728 1.22865 0.467589 1.22865 0.636364V8.14307L5.12426 4.61364C5.23026 4.51751 5.36494 4.46205 5.50573 4.45655C5.64651 4.45104 5.78484 4.49583 5.89754 4.58341L10.4136 8.09216L14.9535 3.97727C15.013 3.91624 15.084 3.86845 15.162 3.83686C15.24 3.80526 15.3234 3.79053 15.4071 3.79355C15.4908 3.79658 15.573 3.8173 15.6487 3.85445C15.7244 3.8916 15.792 3.94439 15.8472 4.00958C15.9025 4.07477 15.9443 4.15097 15.9701 4.23351C15.9959 4.31606 16.0052 4.40319 15.9973 4.48957C15.9894 4.57594 15.9645 4.65973 15.9242 4.73578C15.8839 4.81184 15.829 4.87855 15.7629 4.93182L10.8482 9.38636C10.7422 9.48249 10.6076 9.53795 10.4668 9.54345C10.326 9.54895 10.1877 9.50417 10.075 9.41659L5.55889 5.90943L1.22865 9.8342V12.7273H15.3582C15.5211 12.7273 15.6774 12.7943 15.7926 12.9137C15.9078 13.033 15.9725 13.1949 15.9725 13.3636Z" fill="#085C34"/>
</svg>
