<svg width="16" height="16" viewBox="0 0 16 16" fill="none" xmlns="http://www.w3.org/2000/svg">
<path d="M8 0C6.41775 0 4.87103 0.469192 3.55544 1.34824C2.23985 2.22729 1.21447 3.47672 0.608967 4.93853C0.00346628 6.40034 -0.15496 8.00887 0.153721 9.56072C0.462403 11.1126 1.22433 12.538 2.34315 13.6569C3.46197 14.7757 4.88743 15.5376 6.43928 15.8463C7.99113 16.155 9.59966 15.9965 11.0615 15.391C12.5233 14.7855 13.7727 13.7602 14.6518 12.4446C15.5308 11.129 16 9.58225 16 8C15.9978 5.87895 15.1542 3.84542 13.6544 2.34562C12.1546 0.845814 10.121 0.00223986 8 0ZM13.5285 4.09769L8.61539 6.93384V1.25923C9.59093 1.34867 10.5354 1.64878 11.3837 2.13884C12.2319 2.62891 12.9637 3.29724 13.5285 4.09769ZM7.38462 1.25923V7.64384L1.85462 10.8362C1.40065 9.85218 1.18954 8.77361 1.23904 7.6911C1.28854 6.60859 1.59721 5.55378 2.13908 4.61536C2.68096 3.67693 3.44021 2.8823 4.35301 2.29829C5.26581 1.71427 6.30548 1.35794 7.38462 1.25923ZM8 14.7692C6.9163 14.7688 5.84855 14.5082 4.88651 14.0093C3.92447 13.5104 3.09627 12.7878 2.47154 11.9023L14.1454 5.16308C14.6214 6.19442 14.8303 7.32899 14.7527 8.46225C14.6752 9.59551 14.3137 10.691 13.7015 11.6479C13.0894 12.6048 12.2463 13.3922 11.2499 13.9377C10.2535 14.4831 9.13592 14.7691 8 14.7692Z" fill="#085C34"/>
</svg>
